[2026-04-27T14:18:35] START 3d/auto_lod | python=C:\Users\HG\Documents\Contexthub\Runtimes\Envs\ai\Scripts\python.exe | template=full | entry=C:\Users\HG\Documents\Contexthub-Apps\3d\auto_lod\main.py | targets= | stdout=C:\Users\HG\Documents\Contexthub-Apps\Diagnostics\\gui_captures\logs\3d_auto_lod_stdout.log | stderr=C:\Users\HG\Documents\Contexthub-Apps\Diagnostics\\gui_captures\logs\3d_auto_lod_stderr.log | temp=C:\Users\HG\Documents\Contexthub-Apps\Diagnostics\\gui_runs\3d\auto_lod
[2026-04-27T14:18:39] OK   3d/auto_lod | template=full | image=C:\Users\HG\Documents\Contexthub-Apps\Diagnostics\\gui_captures\3d\auto_lod.png | window_pid=26140 | title=Auto LOD | class=Qt6110QWindowIcon | bounds=2121,793,3521,1743 | stdout_tail= | stderr_tail=
[2026-04-27T14:18:42] START 3d/cad_to_obj | python=C:\Users\HG\Documents\Contexthub\Runtimes\Envs\ai\Scripts\python.exe | template=full | entry=C:\Users\HG\Documents\Contexthub-Apps\3d\cad_to_obj\main.py | targets= | stdout=C:\Users\HG\Documents\Contexthub-Apps\Diagnostics\\gui_captures\logs\3d_cad_to_obj_stdout.log | stderr=C:\Users\HG\Documents\Contexthub-Apps\Diagnostics\\gui_captures\logs\3d_cad_to_obj_stderr.log | temp=C:\Users\HG\Documents\Contexthub-Apps\Diagnostics\\gui_runs\3d\cad_to_obj
[2026-04-27T14:18:46] FAIL C:\Users\HG\Documents\Contexthub-Apps\3d\cad_to_obj\manifest.json | template=full | message=Failed to get window bounds | stdout=C:\Users\HG\Documents\Contexthub-Apps\Diagnostics\\gui_captures\logs\3d_cad_to_obj_stdout.log | stderr=C:\Users\HG\Documents\Contexthub-Apps\Diagnostics\\gui_captures\logs\3d_cad_to_obj_stderr.log | stdout_tail= | stderr_tail=
[2026-04-27T14:18:48] START 3d/extract_textures | python=C:\Users\HG\Documents\Contexthub\Runtimes\Envs\ai\Scripts\python.exe | template=full | entry=C:\Users\HG\Documents\Contexthub-Apps\3d\extract_textures\main.py | targets= | stdout=C:\Users\HG\Documents\Contexthub-Apps\Diagnostics\\gui_captures\logs\3d_extract_textures_stdout.log | stderr=C:\Users\HG\Documents\Contexthub-Apps\Diagnostics\\gui_captures\logs\3d_extract_textures_stderr.log | temp=C:\Users\HG\Documents\Contexthub-Apps\Diagnostics\\gui_runs\3d\extract_textures
[2026-04-27T14:18:51] OK   3d/extract_textures | template=full | image=C:\Users\HG\Documents\Contexthub-Apps\Diagnostics\\gui_captures\3d\extract_textures.png | window_pid=34200 | title=Extract Textures | class=Qt6110QWindow | bounds=-1180,839,-760,1077 | stdout_tail= | stderr_tail=
[2026-04-27T14:18:53] START 3d/mesh_convert | python=C:\Users\HG\Documents\Contexthub\Runtimes\Envs\ai\Scripts\python.exe | template=full | entry=C:\Users\HG\Documents\Contexthub-Apps\3d\mesh_convert\main.py | targets= | stdout=C:\Users\HG\Documents\Contexthub-Apps\Diagnostics\\gui_captures\logs\3d_mesh_convert_stdout.log | stderr=C:\Users\HG\Documents\Contexthub-Apps\Diagnostics\\gui_captures\logs\3d_mesh_convert_stderr.log | temp=C:\Users\HG\Documents\Contexthub-Apps\Diagnostics\\gui_runs\3d\mesh_convert
[2026-04-27T14:18:56] OK   3d/mesh_convert | template=full | image=C:\Users\HG\Documents\Contexthub-Apps\Diagnostics\\gui_captures\3d\mesh_convert.png | window_pid=23860 | title=Mesh Convert | class=Qt6110QWindowIcon | bounds=324,465,1524,1325 | stdout_tail= | stderr_tail=
[2026-04-27T14:18:58] START 3d/open_with_mayo | python=C:\Users\HG\Documents\Contexthub\Runtimes\Envs\ai\Scripts\python.exe | template=full | entry=C:\Users\HG\Documents\Contexthub-Apps\3d\open_with_mayo\main.py | targets= | stdout=C:\Users\HG\Documents\Contexthub-Apps\Diagnostics\\gui_captures\logs\3d_open_with_mayo_stdout.log | stderr=C:\Users\HG\Documents\Contexthub-Apps\Diagnostics\\gui_captures\logs\3d_open_with_mayo_stderr.log | temp=C:\Users\HG\Documents\Contexthub-Apps\Diagnostics\\gui_runs\3d\open_with_mayo
[2026-04-27T14:19:00] OK   3d/open_with_mayo | template=full | image=C:\Users\HG\Documents\Contexthub-Apps\Diagnostics\\gui_captures\3d\open_with_mayo.png | window_pid=13372 | title=Open with Mayo | class=Qt6110QWindow | bounds=-1180,839,-760,1077 | stdout_tail= | stderr_tail=
[2026-04-27T14:19:03] START ai/marigold_pbr | python=C:\Users\HG\Documents\Contexthub\Runtimes\Envs\ai\Scripts\python.exe | template=full | entry=C:\Users\HG\Documents\Contexthub-Apps\ai\marigold_pbr\main.py | targets= | stdout=C:\Users\HG\Documents\Contexthub-Apps\Diagnostics\\gui_captures\logs\ai_marigold_pbr_stdout.log | stderr=C:\Users\HG\Documents\Contexthub-Apps\Diagnostics\\gui_captures\logs\ai_marigold_pbr_stderr.log | temp=C:\Users\HG\Documents\Contexthub-Apps\Diagnostics\\gui_runs\ai\marigold_pbr
[2026-04-27T14:19:15] OK   ai/marigold_pbr | template=full | image=C:\Users\HG\Documents\Contexthub-Apps\Diagnostics\\gui_captures\ai\marigold_pbr.png | window_pid=28264 | title=python | class=Qt6110QWindowIcon | bounds=-1280,727,-923,775 | stdout_tail= | stderr_tail=
[2026-04-27T14:19:18] START ai/subtitle_qc | python=C:\Users\HG\Documents\Contexthub\Runtimes\Envs\ai\Scripts\python.exe | template=full | entry=C:\Users\HG\Documents\Contexthub-Apps\ai\subtitle_qc\main.py | targets= | stdout=C:\Users\HG\Documents\Contexthub-Apps\Diagnostics\\gui_captures\logs\ai_subtitle_qc_stdout.log | stderr=C:\Users\HG\Documents\Contexthub-Apps\Diagnostics\\gui_captures\logs\ai_subtitle_qc_stderr.log | temp=C:\Users\HG\Documents\Contexthub-Apps\Diagnostics\\gui_runs\ai\subtitle_qc
[2026-04-27T14:19:23] OK   ai/subtitle_qc | template=full | image=C:\Users\HG\Documents\Contexthub-Apps\Diagnostics\\gui_captures\ai\subtitle_qc.png | window_pid=2804 | title=Meeting Notes AI | class=Qt6110QWindowIcon | bounds=1324,904,3099,1979 | stdout_tail= | stderr_tail=qt.multimedia.ffmpeg: Using Qt multimedia with FFmpeg version 7.1.3 LGPL version 2.1 or later | QFont::setPointSize: Point size <= 0 (-1), must be greater than 0
[2026-04-27T14:19:26] START ai_lite/ai_text_lab | python=python | template=full | entry=C:\Users\HG\Documents\Contexthub-Apps\ai_lite\ai_text_lab\main.py | targets= | stdout=C:\Users\HG\Documents\Contexthub-Apps\Diagnostics\\gui_captures\logs\ai_lite_ai_text_lab_stdout.log | stderr=C:\Users\HG\Documents\Contexthub-Apps\Diagnostics\\gui_captures\logs\ai_lite_ai_text_lab_stderr.log | temp=C:\Users\HG\Documents\Contexthub-Apps\Diagnostics\\gui_runs\ai_lite\ai_text_lab
[2026-04-27T14:19:32] OK   ai_lite/ai_text_lab | template=full | image=C:\Users\HG\Documents\Contexthub-Apps\Diagnostics\\gui_captures\ai_lite\ai_text_lab.png | window_pid=37172 | title=AI Text Lab Pro | class=Qt6101QWindowIcon | bounds=4022,871,4433,1523 | stdout_tail=2026-04-27 14:19:31,444 - INFO - Ensuring model exists: qwen3.5:4b | 2026-04-27 14:19:31,660 - INFO - Warming up model: qwen3.5:4b | stderr_tail=
[2026-04-27T14:19:34] START ai_lite/versus_up | python=python | template=full | entry=C:\Users\HG\Documents\Contexthub-Apps\ai_lite\versus_up\main.py | targets= | stdout=C:\Users\HG\Documents\Contexthub-Apps\Diagnostics\\gui_captures\logs\ai_lite_versus_up_stdout.log | stderr=C:\Users\HG\Documents\Contexthub-Apps\Diagnostics\\gui_captures\logs\ai_lite_versus_up_stderr.log | temp=C:\Users\HG\Documents\Contexthub-Apps\Diagnostics\\gui_runs\ai_lite\versus_up
[2026-04-27T14:19:37] OK   ai_lite/versus_up | template=full | image=C:\Users\HG\Documents\Contexthub-Apps\Diagnostics\\gui_captures\ai_lite\versus_up.png | window_pid=14836 | title=VersusUp | class=Qt6101QWindowIcon | bounds=528,658,2478,1833 | stdout_tail= | stderr_tail=
[2026-04-27T14:19:39] START audio/audio_toolbox | python=C:\Users\HG\Documents\Contexthub\Runtimes\Envs\audio\Scripts\python.exe | template=full | entry=C:\Users\HG\Documents\Contexthub-Apps\audio\audio_toolbox\main.py | targets= | stdout=C:\Users\HG\Documents\Contexthub-Apps\Diagnostics\\gui_captures\logs\audio_audio_toolbox_stdout.log | stderr=C:\Users\HG\Documents\Contexthub-Apps\Diagnostics\\gui_captures\logs\audio_audio_toolbox_stderr.log | temp=C:\Users\HG\Documents\Contexthub-Apps\Diagnostics\\gui_runs\audio\audio_toolbox
[2026-04-27T14:19:43] OK   audio/audio_toolbox | template=full | image=C:\Users\HG\Documents\Contexthub-Apps\Diagnostics\\gui_captures\audio\audio_toolbox.png | window_pid=27636 | title=Audio Toolbox | class=Qt6110QWindowIcon | bounds=-1549,578,-369,1418 | stdout_tail= | stderr_tail=qt.multimedia.ffmpeg: Using Qt multimedia with FFmpeg version 7.1.3 LGPL version 2.1 or later | Input #0, wav, from 'C:/Users/HG/Documents/Contexthub-Apps/audio/_engine/manuals/headless_inputs/sample.wav': |   Duration: 00:00:01.00, bitrate: 705 kb/s |   Stream #0:0: Audio: pcm_s16le ([1][0][0][0] / 0x0001), 44100 Hz, 1 channels, s16, 705 kb/s
[2026-04-27T14:19:46] START audio/compress_audio | python=C:\Users\HG\Documents\Contexthub\Runtimes\Envs\audio\Scripts\python.exe | template=mini | entry=C:\Users\HG\Documents\Contexthub-Apps\audio\compress_audio\main.py | targets= | stdout=C:\Users\HG\Documents\Contexthub-Apps\Diagnostics\\gui_captures\logs\audio_compress_audio_stdout.log | stderr=C:\Users\HG\Documents\Contexthub-Apps\Diagnostics\\gui_captures\logs\audio_compress_audio_stderr.log | temp=C:\Users\HG\Documents\Contexthub-Apps\Diagnostics\\gui_runs\audio\compress_audio
[2026-04-27T14:19:48] OK   audio/compress_audio | template=mini | image=C:\Users\HG\Documents\Contexthub-Apps\Diagnostics\\gui_captures\audio\compress_audio.png | window_pid=23264 | title=Compress Audio | class=Qt6110QWindowIcon | bounds=1658,928,2183,1233 | stdout_tail= | stderr_tail=
[2026-04-27T14:19:51] START audio/convert_audio | python=C:\Users\HG\Documents\Contexthub\Runtimes\Envs\audio\Scripts\python.exe | template=mini | entry=C:\Users\HG\Documents\Contexthub-Apps\audio\convert_audio\main.py | targets= | stdout=C:\Users\HG\Documents\Contexthub-Apps\Diagnostics\\gui_captures\logs\audio_convert_audio_stdout.log | stderr=C:\Users\HG\Documents\Contexthub-Apps\Diagnostics\\gui_captures\logs\audio_convert_audio_stderr.log | temp=C:\Users\HG\Documents\Contexthub-Apps\Diagnostics\\gui_runs\audio\convert_audio
[2026-04-27T14:19:53] OK   audio/convert_audio | template=mini | image=C:\Users\HG\Documents\Contexthub-Apps\Diagnostics\\gui_captures\audio\convert_audio.png | window_pid=38320 | title=Convert Audio | class=Qt6110QWindowIcon | bounds=1658,928,2183,1233 | stdout_tail= | stderr_tail=
[2026-04-27T14:19:56] START audio/enhance_audio | python=C:\Users\HG\Documents\Contexthub\Runtimes\Envs\audio\Scripts\python.exe | template=mini | entry=C:\Users\HG\Documents\Contexthub-Apps\audio\enhance_audio\main.py | targets= | stdout=C:\Users\HG\Documents\Contexthub-Apps\Diagnostics\\gui_captures\logs\audio_enhance_audio_stdout.log | stderr=C:\Users\HG\Documents\Contexthub-Apps\Diagnostics\\gui_captures\logs\audio_enhance_audio_stderr.log | temp=C:\Users\HG\Documents\Contexthub-Apps\Diagnostics\\gui_runs\audio\enhance_audio
[2026-04-27T14:19:58] OK   audio/enhance_audio | template=mini | image=C:\Users\HG\Documents\Contexthub-Apps\Diagnostics\\gui_captures\audio\enhance_audio.png | window_pid=2132 | title=Enhance Audio | class=Qt6110QWindowIcon | bounds=1658,928,2183,1233 | stdout_tail= | stderr_tail=
[2026-04-27T14:20:01] START audio/extract_audio | python=C:\Users\HG\Documents\Contexthub\Runtimes\Envs\audio\Scripts\python.exe | template=mini | entry=C:\Users\HG\Documents\Contexthub-Apps\audio\extract_audio\main.py | targets= | stdout=C:\Users\HG\Documents\Contexthub-Apps\Diagnostics\\gui_captures\logs\audio_extract_audio_stdout.log | stderr=C:\Users\HG\Documents\Contexthub-Apps\Diagnostics\\gui_captures\logs\audio_extract_audio_stderr.log | temp=C:\Users\HG\Documents\Contexthub-Apps\Diagnostics\\gui_runs\audio\extract_audio
[2026-04-27T14:20:03] OK   audio/extract_audio | template=mini | image=C:\Users\HG\Documents\Contexthub-Apps\Diagnostics\\gui_captures\audio\extract_audio.png | window_pid=34360 | title=Extract Audio | class=Qt6110QWindowIcon | bounds=1658,898,2183,1203 | stdout_tail= | stderr_tail=
[2026-04-27T14:20:06] START audio/normalize_volume | python=C:\Users\HG\Documents\Contexthub\Runtimes\Envs\audio\Scripts\python.exe | template=mini | entry=C:\Users\HG\Documents\Contexthub-Apps\audio\normalize_volume\main.py | targets=C:\Users\HG\Documents\Contexthub-Apps\Diagnostics\\generated\\gui_capture_inputs\normalize_volume_sample.wav | stdout=C:\Users\HG\Documents\Contexthub-Apps\Diagnostics\\gui_captures\logs\audio_normalize_volume_stdout.log | stderr=C:\Users\HG\Documents\Contexthub-Apps\Diagnostics\\gui_captures\logs\audio_normalize_volume_stderr.log | temp=C:\Users\HG\Documents\Contexthub-Apps\Diagnostics\\gui_runs\audio\normalize_volume
[2026-04-27T14:20:08] OK   audio/normalize_volume | template=mini | image=C:\Users\HG\Documents\Contexthub-Apps\Diagnostics\\gui_captures\audio\normalize_volume.png | window_pid=39764 | title=Normalize Volume | class=Qt6110QWindowIcon | bounds=1658,928,2183,1233 | stdout_tail= | stderr_tail=
[2026-04-27T14:20:11] START comfyui/comfyui_dashboard | python=python | template=full | entry=C:\Users\HG\Documents\Contexthub-Apps\comfyui\comfyui_dashboard\main.py | targets= | stdout=C:\Users\HG\Documents\Contexthub-Apps\Diagnostics\\gui_captures\logs\comfyui_comfyui_dashboard_stdout.log | stderr=C:\Users\HG\Documents\Contexthub-Apps\Diagnostics\\gui_captures\logs\comfyui_comfyui_dashboard_stderr.log | temp=C:\Users\HG\Documents\Contexthub-Apps\Diagnostics\\gui_runs\comfyui\comfyui_dashboard
[2026-04-27T14:20:19] OK   comfyui/comfyui_dashboard | template=full | image=C:\Users\HG\Documents\Contexthub-Apps\Diagnostics\\gui_captures\comfyui\comfyui_dashboard.png | window_pid=25568 | title=ComfyUI Dashboard | class=Qt6101QWindowIcon | bounds=-1239,838,-679,1158 | stdout_tail= | stderr_tail=
[2026-04-27T14:20:22] START comfyui/creative_studio_advanced | python=python | template=full | entry=C:\Users\HG\Documents\Contexthub-Apps\comfyui\creative_studio_advanced\main.py | targets= | stdout=C:\Users\HG\Documents\Contexthub-Apps\Diagnostics\\gui_captures\logs\comfyui_creative_studio_advanced_stdout.log | stderr=C:\Users\HG\Documents\Contexthub-Apps\Diagnostics\\gui_captures\logs\comfyui_creative_studio_advanced_stderr.log | temp=C:\Users\HG\Documents\Contexthub-Apps\Diagnostics\\gui_runs\comfyui\creative_studio_advanced
[2026-04-27T14:20:24] OK   comfyui/creative_studio_advanced | template=full | image=C:\Users\HG\Documents\Contexthub-Apps\Diagnostics\\gui_captures\comfyui\creative_studio_advanced.png | window_pid=37932 | title=python | class=Qt6101QWindowIcon | bounds=-1280,727,-935,775 | stdout_tail= | stderr_tail=
[2026-04-27T14:20:26] START comfyui/creative_studio_z | python=python | template=full | entry=C:\Users\HG\Documents\Contexthub-Apps\comfyui\creative_studio_z\main.py | targets= | stdout=C:\Users\HG\Documents\Contexthub-Apps\Diagnostics\\gui_captures\logs\comfyui_creative_studio_z_stdout.log | stderr=C:\Users\HG\Documents\Contexthub-Apps\Diagnostics\\gui_captures\logs\comfyui_creative_studio_z_stderr.log | temp=C:\Users\HG\Documents\Contexthub-Apps\Diagnostics\\gui_runs\comfyui\creative_studio_z
[2026-04-27T14:20:34] OK   comfyui/creative_studio_z | template=full | image=C:\Users\HG\Documents\Contexthub-Apps\Diagnostics\\gui_captures\comfyui\creative_studio_z.png | window_pid=14824 | title=python | class=Qt6101QWindowIcon | bounds=1519,712,1822,771 | stdout_tail= | stderr_tail=
[2026-04-27T14:20:37] START comfyui/inpainting | python=python | template=full | entry=C:\Users\HG\Documents\Contexthub-Apps\comfyui\inpainting\main.py | targets= | stdout=C:\Users\HG\Documents\Contexthub-Apps\Diagnostics\\gui_captures\logs\comfyui_inpainting_stdout.log | stderr=C:\Users\HG\Documents\Contexthub-Apps\Diagnostics\\gui_captures\logs\comfyui_inpainting_stderr.log | temp=C:\Users\HG\Documents\Contexthub-Apps\Diagnostics\\gui_runs\comfyui\inpainting
[2026-04-27T14:20:39] OK   comfyui/inpainting | template=full | image=C:\Users\HG\Documents\Contexthub-Apps\Diagnostics\\gui_captures\comfyui\inpainting.png | window_pid=25872 | title=python | class=Qt6101QWindowIcon | bounds=-1280,727,-991,775 | stdout_tail= | stderr_tail=
[2026-04-27T14:20:41] START document/doc_convert | python=C:\Users\HG\Documents\Contexthub\Runtimes\Envs\document\Scripts\python.exe | template=full | entry=C:\Users\HG\Documents\Contexthub-Apps\document\doc_convert\main.py | targets= | stdout=C:\Users\HG\Documents\Contexthub-Apps\Diagnostics\\gui_captures\logs\document_doc_convert_stdout.log | stderr=C:\Users\HG\Documents\Contexthub-Apps\Diagnostics\\gui_captures\logs\document_doc_convert_stderr.log | temp=C:\Users\HG\Documents\Contexthub-Apps\Diagnostics\\gui_runs\document\doc_convert
[2026-04-27T14:20:48] OK   document/doc_convert | template=full | image=C:\Users\HG\Documents\Contexthub-Apps\Diagnostics\\gui_captures\document\doc_convert.png | window_pid=35564 | title=Convert Docs | class=Qt6110QWindowIcon | bounds=498,808,1998,1808 | stdout_tail= | stderr_tail=
[2026-04-27T14:20:50] START document/doc_scan | python=C:\Users\HG\Documents\Contexthub\Runtimes\Envs\document\Scripts\python.exe | template=full | entry=C:\Users\HG\Documents\Contexthub-Apps\document\doc_scan\main.py | targets= | stdout=C:\Users\HG\Documents\Contexthub-Apps\Diagnostics\\gui_captures\logs\document_doc_scan_stdout.log | stderr=C:\Users\HG\Documents\Contexthub-Apps\Diagnostics\\gui_captures\logs\document_doc_scan_stderr.log | temp=C:\Users\HG\Documents\Contexthub-Apps\Diagnostics\\gui_runs\document\doc_scan
[2026-04-27T14:20:53] OK   document/doc_scan | template=full | image=C:\Users\HG\Documents\Contexthub-Apps\Diagnostics\\gui_captures\document\doc_scan.png | window_pid=25572 | title=Document Scanner | class=Qt6110QWindowIcon | bounds=2423,468,3703,1343 | stdout_tail= | stderr_tail=
[2026-04-27T14:20:55] START document/pdf_merge | python=C:\Users\HG\Documents\Contexthub\Runtimes\Envs\document\Scripts\python.exe | template=full | entry=C:\Users\HG\Documents\Contexthub-Apps\document\pdf_merge\main.py | targets= | stdout=C:\Users\HG\Documents\Contexthub-Apps\Diagnostics\\gui_captures\logs\document_pdf_merge_stdout.log | stderr=C:\Users\HG\Documents\Contexthub-Apps\Diagnostics\\gui_captures\logs\document_pdf_merge_stderr.log | temp=C:\Users\HG\Documents\Contexthub-Apps\Diagnostics\\gui_runs\document\pdf_merge
[2026-04-27T14:20:57] WARN document/pdf_merge | template=full | no window detected within 20s | proc=exited: | stdout=C:\Users\HG\Documents\Contexthub-Apps\Diagnostics\\gui_captures\logs\document_pdf_merge_stdout.log | stderr=C:\Users\HG\Documents\Contexthub-Apps\Diagnostics\\gui_captures\logs\document_pdf_merge_stderr.log | stdout_tail=I18n: Loading extra strings from C:\Users\HG\Documents\Contexthub-Apps\document\_engine\locales.json | stderr_tail=Traceback (most recent call last): |   File "C:\Users\HG\Documents\Contexthub-Apps\document\pdf_merge\main.py", line 70, in <module> |     main() |   File "C:\Users\HG\Documents\Contexthub-Apps\document\pdf_merge\main.py", line 66, in main |     _run_qt(targets) |   File "C:\Users\HG\Documents\Contexthub-Apps\document\pdf_merge\main.py", line 61, in _run_qt |     start_app(targets) |   File "C:\Users\HG\Documents\Contexthub-Apps\document\_engine\features\document\pdf_merge_qt_app.py", line 381, in start_app |     window = PdfMergeWindow(PdfMergeService(), app_root, targets) |              ^^^^^^^^^^^^^^^^^^^^^^^^^^^^^^^^^^^^^^^^^^^^^^^^^^^^ |   File "C:\Users\HG\Documents\Contexthub-Apps\document\_engine\features\document\pdf_merge_qt_app.py", line 59, in __init__ |     self._build_ui() |   File "C:\Users\HG\Documents\Contexthub-Apps\document\_engine\features\document\pdf_merge_qt_app.py", line 151, in _build_ui |     self._set_drop_highlight(False) |   File "C:\Users\HG\Documents\Contexthub-Apps\document\_engine\features\document\pdf_merge_qt_app.py", line 370, in _set_drop_highlight |     set_surface_role(self.list_card, "card", "default") | TypeError: set_surface_role() takes 2 positional arguments but 3 were given
[2026-04-27T14:20:59] START document/pdf_split | python=C:\Users\HG\Documents\Contexthub\Runtimes\Envs\document\Scripts\python.exe | template=full | entry=C:\Users\HG\Documents\Contexthub-Apps\document\pdf_split\main.py | targets= | stdout=C:\Users\HG\Documents\Contexthub-Apps\Diagnostics\\gui_captures\logs\document_pdf_split_stdout.log | stderr=C:\Users\HG\Documents\Contexthub-Apps\Diagnostics\\gui_captures\logs\document_pdf_split_stderr.log | temp=C:\Users\HG\Documents\Contexthub-Apps\Diagnostics\\gui_runs\document\pdf_split
[2026-04-27T14:21:02] OK   document/pdf_split | template=full | image=C:\Users\HG\Documents\Contexthub-Apps\Diagnostics\\gui_captures\document\pdf_split.png | window_pid=40584 | title=PDF Split | class=Qt6110QWindow | bounds=-1180,789,-760,1128 | stdout_tail= | stderr_tail=
[2026-04-27T14:21:04] START image/blur_gray32_exr | python=C:\Users\HG\Documents\Contexthub\Runtimes\Envs\image\Scripts\python.exe | template=full | entry=C:\Users\HG\Documents\Contexthub-Apps\image\blur_gray32_exr\main.py | targets= | stdout=C:\Users\HG\Documents\Contexthub-Apps\Diagnostics\\gui_captures\logs\image_blur_gray32_exr_stdout.log | stderr=C:\Users\HG\Documents\Contexthub-Apps\Diagnostics\\gui_captures\logs\image_blur_gray32_exr_stderr.log | temp=C:\Users\HG\Documents\Contexthub-Apps\Diagnostics\\gui_runs\image\blur_gray32_exr
[2026-04-27T14:21:06] OK   image/blur_gray32_exr | template=full | image=C:\Users\HG\Documents\Contexthub-Apps\Diagnostics\\gui_captures\image\blur_gray32_exr.png | window_pid=4620 | title=Blur To Gray32 EXR | class=Qt6110QWindow | bounds=-1200,701,-740,1216 | stdout_tail= | stderr_tail=
[2026-04-27T14:21:08] START image/image_compare | python=C:\Users\HG\Documents\Contexthub\Runtimes\Envs\image\Scripts\python.exe | template=full | entry=C:\Users\HG\Documents\Contexthub-Apps\image\image_compare\main.py | targets= | stdout=C:\Users\HG\Documents\Contexthub-Apps\Diagnostics\\gui_captures\logs\image_image_compare_stdout.log | stderr=C:\Users\HG\Documents\Contexthub-Apps\Diagnostics\\gui_captures\logs\image_image_compare_stderr.log | temp=C:\Users\HG\Documents\Contexthub-Apps\Diagnostics\\gui_runs\image\image_compare
[2026-04-27T14:21:12] OK   image/image_compare | template=full | image=C:\Users\HG\Documents\Contexthub-Apps\Diagnostics\\gui_captures\image\image_compare.png | window_pid=34836 | title=Image Compare | class=Qt6110QWindowIcon | bounds=-1559,573,-359,1423 | stdout_tail= | stderr_tail=
[2026-04-27T14:21:15] START image/image_convert | python=C:\Users\HG\Documents\Contexthub\Runtimes\Envs\image\Scripts\python.exe | template=full | entry=C:\Users\HG\Documents\Contexthub-Apps\image\image_convert\main.py | targets= | stdout=C:\Users\HG\Documents\Contexthub-Apps\Diagnostics\\gui_captures\logs\image_image_convert_stdout.log | stderr=C:\Users\HG\Documents\Contexthub-Apps\Diagnostics\\gui_captures\logs\image_image_convert_stderr.log | temp=C:\Users\HG\Documents\Contexthub-Apps\Diagnostics\\gui_runs\image\image_convert
[2026-04-27T14:21:17] OK   image/image_convert | template=full | image=C:\Users\HG\Documents\Contexthub-Apps\Diagnostics\\gui_captures\image\image_convert.png | window_pid=13728 | title=Image Converter | class=Qt6110QWindowIcon | bounds=1178,564,2778,1614 | stdout_tail= | stderr_tail=
[2026-04-27T14:21:20] START image/image_resizer | python=C:\Users\HG\Documents\Contexthub\Runtimes\Envs\image\Scripts\python.exe | template=full | entry=C:\Users\HG\Documents\Contexthub-Apps\image\image_resizer\main.py | targets= | stdout=C:\Users\HG\Documents\Contexthub-Apps\Diagnostics\\gui_captures\logs\image_image_resizer_stdout.log | stderr=C:\Users\HG\Documents\Contexthub-Apps\Diagnostics\\gui_captures\logs\image_image_resizer_stderr.log | temp=C:\Users\HG\Documents\Contexthub-Apps\Diagnostics\\gui_runs\image\image_resizer
[2026-04-27T14:21:22] OK   image/image_resizer | template=full | image=C:\Users\HG\Documents\Contexthub-Apps\Diagnostics\\gui_captures\image\image_resizer.png | window_pid=27348 | title=Image Resizer | class=Qt6110QWindowIcon | bounds=2535,690,3010,1703 | stdout_tail= | stderr_tail=
[2026-04-27T14:21:25] START image/merge_to_exr | python=C:\Users\HG\Documents\Contexthub\Runtimes\Envs\image\Scripts\python.exe | template=full | entry=C:\Users\HG\Documents\Contexthub-Apps\image\merge_to_exr\main.py | targets= | stdout=C:\Users\HG\Documents\Contexthub-Apps\Diagnostics\\gui_captures\logs\image_merge_to_exr_stdout.log | stderr=C:\Users\HG\Documents\Contexthub-Apps\Diagnostics\\gui_captures\logs\image_merge_to_exr_stderr.log | temp=C:\Users\HG\Documents\Contexthub-Apps\Diagnostics\\gui_runs\image\merge_to_exr
[2026-04-27T14:21:27] WARN image/merge_to_exr | template=full | no window detected within 20s | proc=exited: | stdout=C:\Users\HG\Documents\Contexthub-Apps\Diagnostics\\gui_captures\logs\image_merge_to_exr_stdout.log | stderr=C:\Users\HG\Documents\Contexthub-Apps\Diagnostics\\gui_captures\logs\image_merge_to_exr_stderr.log | stdout_tail= | stderr_tail=Traceback (most recent call last): |   File "C:\Users\HG\Documents\Contexthub-Apps\image\merge_to_exr\main.py", line 61, in <module> |     main() |   File "C:\Users\HG\Documents\Contexthub-Apps\image\merge_to_exr\main.py", line 57, in main |     _run_qt(targets) |   File "C:\Users\HG\Documents\Contexthub-Apps\image\merge_to_exr\main.py", line 52, in _run_qt |     start_app(targets) |   File "C:\Users\HG\Documents\Contexthub-Apps\image\_engine\features\image\merge_to_exr_qt_app.py", line 456, in start_app |     window = MergeToExrWindow(ExrMergeService(), app_root, targets) |              ^^^^^^^^^^^^^^^^^^^^^^^^^^^^^^^^^^^^^^^^^^^^^^^^^^^^^^ |   File "C:\Users\HG\Documents\Contexthub-Apps\image\_engine\features\image\merge_to_exr_qt_app.py", line 121, in __init__ |     self._build_ui() |   File "C:\Users\HG\Documents\Contexthub-Apps\image\_engine\features\image\merge_to_exr_qt_app.py", line 214, in _build_ui |     self._set_drop_highlight(False) |   File "C:\Users\HG\Documents\Contexthub-Apps\image\_engine\features\image\merge_to_exr_qt_app.py", line 420, in _set_drop_highlight |     set_surface_role(self.layer_card, "card", "default") | TypeError: set_surface_role() takes 2 positional arguments but 3 were given
[2026-04-27T14:21:29] START image/normal_flip_green | python=C:\Users\HG\Documents\Contexthub\Runtimes\Envs\image\Scripts\python.exe | template=full | entry=C:\Users\HG\Documents\Contexthub-Apps\image\normal_flip_green\main.py | targets= | stdout=C:\Users\HG\Documents\Contexthub-Apps\Diagnostics\\gui_captures\logs\image_normal_flip_green_stdout.log | stderr=C:\Users\HG\Documents\Contexthub-Apps\Diagnostics\\gui_captures\logs\image_normal_flip_green_stderr.log | temp=C:\Users\HG\Documents\Contexthub-Apps\Diagnostics\\gui_runs\image\normal_flip_green
[2026-04-27T14:21:31] FAIL C:\Users\HG\Documents\Contexthub-Apps\image\normal_flip_green\manifest.json | template=full | message=Failed to get window bounds | stdout=C:\Users\HG\Documents\Contexthub-Apps\Diagnostics\\gui_captures\logs\image_normal_flip_green_stdout.log | stderr=C:\Users\HG\Documents\Contexthub-Apps\Diagnostics\\gui_captures\logs\image_normal_flip_green_stderr.log | stdout_tail= | stderr_tail=
[2026-04-27T14:21:33] START image/rigreader_vectorizer | python=C:\Users\HG\Documents\Contexthub\Runtimes\Envs\image\Scripts\python.exe | template=full | entry=C:\Users\HG\Documents\Contexthub-Apps\image\rigreader_vectorizer\main.py | targets= | stdout=C:\Users\HG\Documents\Contexthub-Apps\Diagnostics\\gui_captures\logs\image_rigreader_vectorizer_stdout.log | stderr=C:\Users\HG\Documents\Contexthub-Apps\Diagnostics\\gui_captures\logs\image_rigreader_vectorizer_stderr.log | temp=C:\Users\HG\Documents\Contexthub-Apps\Diagnostics\\gui_runs\image\rigreader_vectorizer
[2026-04-27T14:21:37] OK   image/rigreader_vectorizer | template=full | image=C:\Users\HG\Documents\Contexthub-Apps\Diagnostics\\gui_captures\image\rigreader_vectorizer.png | window_pid=22184 | title=RigReady Vectorizer | class=Qt6110QWindowIcon | bounds=1128,633,2753,1877 | stdout_tail= | stderr_tail=
[2026-04-27T14:21:39] SKIP / - not a python gui app
[2026-04-27T14:21:41] START image/split_exr | python=C:\Users\HG\Documents\Contexthub\Runtimes\Envs\image\Scripts\python.exe | template=full | entry=C:\Users\HG\Documents\Contexthub-Apps\image\split_exr\main.py | targets= | stdout=C:\Users\HG\Documents\Contexthub-Apps\Diagnostics\\gui_captures\logs\image_split_exr_stdout.log | stderr=C:\Users\HG\Documents\Contexthub-Apps\Diagnostics\\gui_captures\logs\image_split_exr_stderr.log | temp=C:\Users\HG\Documents\Contexthub-Apps\Diagnostics\\gui_runs\image\split_exr
[2026-04-27T14:21:44] OK   image/split_exr | template=full | image=C:\Users\HG\Documents\Contexthub-Apps\Diagnostics\\gui_captures\image\split_exr.png | window_pid=4696 | title=Split EXR | class=Qt6110QWindow | bounds=-1180,839,-760,1077 | stdout_tail= | stderr_tail=
[2026-04-27T14:21:46] START image/texture_packer_orm | python=C:\Users\HG\Documents\Contexthub\Runtimes\Envs\image\Scripts\python.exe | template=full | entry=C:\Users\HG\Documents\Contexthub-Apps\image\texture_packer_orm\main.py | targets= | stdout=C:\Users\HG\Documents\Contexthub-Apps\Diagnostics\\gui_captures\logs\image_texture_packer_orm_stdout.log | stderr=C:\Users\HG\Documents\Contexthub-Apps\Diagnostics\\gui_captures\logs\image_texture_packer_orm_stderr.log | temp=C:\Users\HG\Documents\Contexthub-Apps\Diagnostics\\gui_runs\image\texture_packer_orm
[2026-04-27T14:21:48] OK   image/texture_packer_orm | template=full | image=C:\Users\HG\Documents\Contexthub-Apps\Diagnostics\\gui_captures\image\texture_packer_orm.png | window_pid=37152 | title=python | class=Qt6110QWindowIcon | bounds=-1219,598,-699,1398 | stdout_tail= | stderr_tail=
[2026-04-27T14:21:51] START utilities/youtube_downloader | python=C:\Users\HG\Documents\Contexthub\Runtimes\Envs\utilities\Scripts\python.exe | template=full | entry=C:\Users\HG\Documents\Contexthub-Apps\utilities\youtube_downloader\main.py | targets= | stdout=C:\Users\HG\Documents\Contexthub-Apps\Diagnostics\\gui_captures\logs\utilities_youtube_downloader_stdout.log | stderr=C:\Users\HG\Documents\Contexthub-Apps\Diagnostics\\gui_captures\logs\utilities_youtube_downloader_stderr.log | temp=C:\Users\HG\Documents\Contexthub-Apps\Diagnostics\\gui_runs\utilities\youtube_downloader
[2026-04-27T14:21:57] OK   utilities/youtube_downloader | template=full | image=C:\Users\HG\Documents\Contexthub-Apps\Diagnostics\\gui_captures\utilities\youtube_downloader.png | window_pid=16264 | title=Video Downloader | class=Qt6110QWindowIcon | bounds=1203,491,1978,1630 | stdout_tail= | stderr_tail=
[2026-04-27T14:21:59] START video/interpolate_30fps | python=C:\Users\HG\Documents\Contexthub\Runtimes\Envs\video\Scripts\python.exe | template=full | entry=C:\Users\HG\Documents\Contexthub-Apps\video\interpolate_30fps\main.py | targets= | stdout=C:\Users\HG\Documents\Contexthub-Apps\Diagnostics\\gui_captures\logs\video_interpolate_30fps_stdout.log | stderr=C:\Users\HG\Documents\Contexthub-Apps\Diagnostics\\gui_captures\logs\video_interpolate_30fps_stderr.log | temp=C:\Users\HG\Documents\Contexthub-Apps\Diagnostics\\gui_runs\video\interpolate_30fps
[2026-04-27T14:22:02] OK   video/interpolate_30fps | template=full | image=C:\Users\HG\Documents\Contexthub-Apps\Diagnostics\\gui_captures\video\interpolate_30fps.png | window_pid=8000 | title=Interpolate 30fps | class=Qt6110QWindow | bounds=-1180,839,-760,1077 | stdout_tail= | stderr_tail=
[2026-04-27T14:22:04] START video/remove_audio | python=C:\Users\HG\Documents\Contexthub\Runtimes\Envs\video\Scripts\python.exe | template=full | entry=C:\Users\HG\Documents\Contexthub-Apps\video\remove_audio\main.py | targets=C:\Users\HG\Documents\Contexthub-Apps\Diagnostics\\generated\\gui_capture_inputs\remove_audio_sample.mp4 | stdout=C:\Users\HG\Documents\Contexthub-Apps\Diagnostics\\gui_captures\logs\video_remove_audio_stdout.log | stderr=C:\Users\HG\Documents\Contexthub-Apps\Diagnostics\\gui_captures\logs\video_remove_audio_stderr.log | temp=C:\Users\HG\Documents\Contexthub-Apps\Diagnostics\\gui_runs\video\remove_audio
[2026-04-27T14:22:07] OK   video/remove_audio | template=full | image=C:\Users\HG\Documents\Contexthub-Apps\Diagnostics\\gui_captures\video\remove_audio.png | window_pid=18512 | title=Remove Audio | class=Qt6110QWindow | bounds=-1180,839,-760,1077 | stdout_tail= | stderr_tail=
[2026-04-27T14:22:09] START video/video_convert | python=C:\Users\HG\Documents\Contexthub\Runtimes\Envs\video\Scripts\python.exe | template=full | entry=C:\Users\HG\Documents\Contexthub-Apps\video\video_convert\main.py | targets=C:\Users\HG\Documents\Contexthub-Apps\Diagnostics\\generated\\gui_capture_inputs\video_convert_sample.mp4 | stdout=C:\Users\HG\Documents\Contexthub-Apps\Diagnostics\\gui_captures\logs\video_video_convert_stdout.log | stderr=C:\Users\HG\Documents\Contexthub-Apps\Diagnostics\\gui_captures\logs\video_video_convert_stderr.log | temp=C:\Users\HG\Documents\Contexthub-Apps\Diagnostics\\gui_runs\video\video_convert
[2026-04-27T14:22:13] OK   video/video_convert | template=full | image=C:\Users\HG\Documents\Contexthub-Apps\Diagnostics\\gui_captures\video\video_convert.png | window_pid=34640 | title=Video Convert | class=Qt6110QWindowIcon | bounds=3845,546,4887,1484 | stdout_tail= | stderr_tail=qt.multimedia.ffmpeg: Using Qt multimedia with FFmpeg version 7.1.3 LGPL version 2.1 or later | Input #0, mov,mp4,m4a,3gp,3g2,mj2, from 'C:/Users/HG/Documents/Contexthub-Apps/Diagnostics/generated/gui_capture_inputs/video_convert_sample.mp4': |   Metadata: |     major_brand     : isom |     minor_version   : 512 |     compatible_brands: isomiso2avc1mp41 |     encoder         : Lavf62.1.102 |   Duration: 00:00:03.00, start: 0.000000, bitrate: 2845 kb/s |   Stream #0:0[0x1](und): Video: h264 (High) (avc1 / 0x31637661), yuv420p(progressive), 1280x720 [SAR 1:1 DAR 16:9], 2765 kb/s, 24 fps, 24 tbr, 12288 tbn (default) |       Metadata: |         handler_name    : VideoHandler |         vendor_id       : [0][0][0][0] |         encoder         : Lavc62.6.100 libx264 |   Stream #0:1[0x2](und): Audio: aac (LC) (mp4a / 0x6134706D), 48000 Hz, mono, fltp, 69 kb/s (default) |       Metadata: |         handler_name    : SoundHandler |         vendor_id       : [0][0][0][0]
